<?xml version="1.0" encoding="utf-8"?>
<svg xmlns="http://www.w3.org/2000/svg" xmlns:xlink="http://www.w3.org/1999/xlink">
    <symbol viewBox="0 0 18 18" id="apartment" xmlns="http://www.w3.org/2000/svg">
        <path
            d="M14 8V2c0-1.1-.9-2-2-2H6C4.9 0 4 .9 4 2v2H2C.9 4 0 4.9 0 6v10c0 1.1.9 2 2 2h6v-4h2v4h6c1.1 0 2-.9 2-2v-6c0-1.1-.9-2-2-2h-2zM4 16H2v-2h2v2zm0-4H2v-2h2v2zm0-4H2V6h2v2zm4 4H6v-2h2v2zm0-4H6V6h2v2zm0-4H6V2h2v2zm4 8h-2v-2h2v2zm0-4h-2V6h2v2zm0-4h-2V2h2v2zm4 12h-2v-2h2v2zm0-4h-2v-2h2v2z" />
    </symbol>
    <symbol viewBox="0 0 9 18" id="arrow" xmlns="http://www.w3.org/2000/svg">
        <path
            d="M1.659.836a1.152 1.152 0 00-1.025.62 1.17 1.17 0 00.134 1.289l5.183 6.24-4.998 6.25a1.165 1.165 0 00-.117 1.292c.073.135.172.254.29.35a1.155 1.155 0 001.334.14c.139-.08.26-.187.356-.315l5.587-6.985a1.169 1.169 0 000-1.478L2.62 1.255a1.158 1.158 0 00-.96-.42z" />
    </symbol>
    <symbol viewBox="0 0 25 24" id="bath" xmlns="http://www.w3.org/2000/svg">
        <path
            d="M23.04 11.955H1.96c-.83 0-1.505.676-1.505 1.506s.676 1.505 1.506 1.505h21.078c.83 0 1.506-.675 1.506-1.505 0-.83-.676-1.506-1.506-1.506z" />
        <path
            d="M23.178 13.982a.499.499 0 00-.62.345l-.04.138H2.483l-.04-.138a.501.501 0 10-.965.275l1.383 4.842a3.528 3.528 0 003.378 2.549H18.76a3.527 3.527 0 003.378-2.549l1.383-4.842a.5.5 0 00-.343-.62zM6.24 19.985a1.51 1.51 0 01-1.448-1.092l-.651-2.282a.502.502 0 11.965-.275l.65 2.282c.063.214.26.364.484.364a.502.502 0 010 1.003z" />
        <path
            d="M7.203 21.041a.504.504 0 00-.673.225l-1.004 2.007a.503.503 0 00.899.449l1.003-2.007a.503.503 0 00-.225-.674zM19.474 23.274l-1.004-2.007a.502.502 0 10-.898.448l1.004 2.008a.502.502 0 00.898-.449zM20.615 0c-.512 0-.994.2-1.356.562l-1.593 1.593a.502.502 0 00.71.71l1.593-1.592a.909.909 0 01.651-.268c.504 0 .913.41.913.913v10.54a.502.502 0 101.005-.002V1.917A1.92 1.92 0 0020.615 0z" />
        <path
            d="M18.878 2.657l-1.004-1.004a.497.497 0 00-.437-.14l-2.509.411a.503.503 0 00-.279.844L17.66 5.87a.5.5 0 00.502.131.5.5 0 00.35-.382l.502-2.51a.502.502 0 00-.136-.452zM12.352 6.08a.502.502 0 00-.71 0L10.64 7.085a.502.502 0 00.71.71l1.003-1.004a.502.502 0 000-.71zM14.36 8.088a.502.502 0 00-.71 0l-1.004 1.004a.502.502 0 00.71.71l1.004-1.004a.502.502 0 000-.71zM15.364 5.077a.502.502 0 00-.71 0L13.65 6.08a.502.502 0 00.71.71l1.004-1.004a.502.502 0 000-.71z" />
    </symbol>
    <symbol viewBox="0 0 24 16" id="bed" xmlns="http://www.w3.org/2000/svg">
        <path
            d="M19.8 6.77c2.271 0 4.2 1.892 4.2 4.307v3.692h-1.8V16H21v-1.23H3V16H1.8v-1.23H0v-3.693c0-2.33 1.863-4.308 4.2-4.308h15.6zM18.6 0c1.613 0 3 1.33 3 3.077v2.94a3.654 3.654 0 00-1.8-.479h-1.2c0-1.054-.841-1.846-1.8-1.846h-3.6c-.461 0-.881.178-1.2.47a1.768 1.768 0 00-1.2-.47H7.2c-.994 0-1.8.827-1.8 1.846H4.2c-.644 0-1.254.172-1.8.479v-2.94C2.4 1.422 3.694 0 5.4 0h13.2zm-7.8 4.923c.326 0 .6.307.6.615H6.6c0-.377.292-.615.6-.615h3.6zm6 .004c.34-.004.6.296.6.61h-4.8c0-.381.292-.614.6-.614l3.6.004z" />
    </symbol>
    <symbol viewBox="0 0 20 16" id="email" xmlns="http://www.w3.org/2000/svg">
        <path
            d="M17 0H3a3 3 0 00-3 3v10a3 3 0 003 3h14a3 3 0 003-3V3a3 3 0 00-3-3zm0 2l-6.5 4.47a1 1 0 01-1 0L3 2h14z" />
    </symbol>
    <symbol viewBox="0 0 13 20" id="facebook" xmlns="http://www.w3.org/2000/svg">
        <path
            d="M3.319 20v-9.385H0V7.237h3.319V4.35C3.319 2.083 5.279 0 9.796 0c1.829 0 3.181.131 3.181.131l-.107 3.155s-1.379-.01-2.884-.01c-1.629 0-1.89.562-1.89 1.493v2.468H13l-.213 3.378h-4.69V20H3.318z" />
    </symbol>
    <symbol viewBox="0 0 12 14" id="flame" xmlns="http://www.w3.org/2000/svg">
        <path
            d="M11.033 6.331a5.43 5.43 0 00-1.295-1.8l-.455-.417a.126.126 0 00-.203.052l-.203.582c-.127.366-.36.74-.69 1.107a.098.098 0 01-.064.03.086.086 0 01-.067-.023.092.092 0 01-.031-.075c.058-.94-.223-2.001-.84-3.156-.508-.96-1.216-1.708-2.1-2.23l-.646-.38a.125.125 0 00-.187.115l.034.75c.023.512-.036.965-.177 1.342-.171.461-.418.89-.734 1.273a4.62 4.62 0 01-.742.72 5.51 5.51 0 00-1.567 1.9 5.434 5.434 0 00-.133 4.535 5.49 5.49 0 002.928 2.9A5.497 5.497 0 006 13.984c.742 0 1.46-.143 2.14-.426a5.446 5.446 0 001.747-1.167A5.408 5.408 0 0011.5 8.533c0-.763-.156-1.503-.467-2.202z" />
    </symbol>
    <symbol viewBox="0 0 24 24" id="garage" xmlns="http://www.w3.org/2000/svg">
        <path
            d="M23.384 6.629L13.357.379a2.581 2.581 0 00-2.712.011L.608 6.634c-.623.391-.795 1.191-.385 1.786.41.594 1.248.76 1.872.367l9.915-6.168 9.904 6.173c.228.14.482.207.733.207.444 0 .877-.207 1.136-.588.405-.598.226-1.395-.4-1.782z" />
        <path
            d="M20.21 14.753a.928.928 0 00-.902-.783h-.512l-.194-2.074C18.394 9.678 16.599 8 14.425 8H9.576C7.402 8 5.606 9.679 5.4 11.896l-.194 2.074h-.512a.93.93 0 00-.904.783l-.761 4.424a1.92 1.92 0 00.406 1.538c.335.41.83.654 1.348.673v.734c0 1.04.813 1.878 1.828 1.878h.577c1.015 0 1.84-.838 1.84-1.878V21.4h5.952v.72c0 1.04.819 1.88 1.833 1.88h.578c1.014 0 1.834-.84 1.834-1.88v-.732a1.823 1.823 0 001.344-.67 1.92 1.92 0 00.405-1.538l-.762-4.427zm-13.82 4.94c-.855 0-1.55-.71-1.55-1.59 0-.878.695-1.59 1.55-1.59.857 0 1.552.711 1.552 1.59 0 .88-.695 1.59-1.551 1.59zm.387-5.723l.18-1.913c.13-1.391 1.256-2.439 2.62-2.439h.279v.602a.92.92 0 00.912.937h2.464c.509 0 .92-.416.92-.937v-.601h.273c1.363 0 2.49 1.047 2.619 2.438l.18 1.914H6.777zm10.831 5.723c-.856 0-1.55-.71-1.55-1.59 0-.878.694-1.59 1.55-1.59.857 0 1.551.711 1.551 1.59 0 .88-.694 1.59-1.55 1.59z" />
    </symbol>
    <symbol viewBox="0 0 12 13" id="house" xmlns="http://www.w3.org/2000/svg">
        <path
            d="M12 6.221V12a1.005 1.005 0 01-.528.884.961.961 0 01-.47.116H7.997a.5.5 0 01-.5-.5v-3a.5.5 0 00-.5-.5h-2a.5.5 0 00-.5.5v3a.5.5 0 01-.5.5H1a.993.993 0 01-.75-.338 1.03 1.03 0 01-.25-.685V6.221a1.002 1.002 0 01.327-.74l5-4.546a.996.996 0 011.345 0l5 4.546a1.004 1.004 0 01.328.74z" />
    </symbol>
    <symbol viewBox="0 0 20 20" id="instagram" xmlns="http://www.w3.org/2000/svg">
        <path
            d="M9.997 6.665A3.342 3.342 0 006.663 10a3.342 3.342 0 003.334 3.335A3.342 3.342 0 0013.332 10a3.342 3.342 0 00-3.335-3.335zM20 10c0-1.38.012-2.75-.065-4.128-.078-1.6-.443-3.022-1.614-4.193C17.147.506 15.73.143 14.127.066 12.747-.012 11.378 0 10 0 8.619 0 7.25-.012 5.872.066 4.271.143 2.85.509 1.68 1.679.506 2.853.143 4.271.066 5.872-.012 7.253 0 8.622 0 10c0 1.378-.013 2.75.065 4.128.077 1.6.443 3.022 1.613 4.193 1.174 1.173 2.592 1.536 4.193 1.613C7.253 20.012 8.622 20 10 20c1.38 0 2.75.013 4.127-.065 1.602-.077 3.022-.443 4.193-1.613 1.174-1.174 1.536-2.592 1.614-4.193.08-1.379.065-2.747.065-4.128zM9.997 15.131A5.124 5.124 0 014.867 10a5.124 5.124 0 015.13-5.131c2.84 0 5.131 2.292 5.131 5.131a5.124 5.124 0 01-5.13 5.131zm5.341-9.274A1.197 1.197 0 0114.14 4.66c0-.663.535-1.198 1.198-1.198a1.197 1.197 0 01.848 2.046 1.196 1.196 0 01-.848.35z" />
    </symbol>
    <symbol viewBox="0 0 18 22" id="marker" xmlns="http://www.w3.org/2000/svg">
        <path
            d="M9 0c2.387 0 4.676.993 6.364 2.762C17.052 4.53 18 6.928 18 9.429c0 4.505-2.902 8.652-8.598 12.449a.726.726 0 01-.804 0C2.902 18.08 0 13.934 0 9.428c0-2.5.948-4.898 2.636-6.666C4.324.993 6.613 0 9 0zm0 6.286c-.796 0-1.559.33-2.121.92A3.22 3.22 0 006 9.43c0 .833.316 1.633.879 2.222.562.59 1.325.92 2.121.92s1.559-.33 2.121-.92A3.22 3.22 0 0012 9.429a3.22 3.22 0 00-.879-2.223A2.932 2.932 0 009 6.286z" />
    </symbol>
    <symbol viewBox="0 0 16 20" id="phone" xmlns="http://www.w3.org/2000/svg">
        <path
            d="M4.384.48a2.4 2.4 0 012.793 1.134l.09.18.793 1.764a2.996 2.996 0 01-.53 3.262l-.159.158-1.253 1.168c-.225.214-.056 1.04.761 2.454.733 1.272 1.332 1.866 1.625 1.898h.052l.063-.012 2.46-.752a1.8 1.8 0 011.877.53l.11.137 1.628 2.256a2.4 2.4 0 01-.15 2.997l-.146.15-.651.618a4.2 4.2 0 01-4.458.845c-2.322-.936-4.432-3.074-6.348-6.393C1.02 9.546.223 6.646.579 4.162A4.2 4.2 0 013.294.815l.231-.077.86-.259z" />
    </symbol>
    <symbol stroke="currentColor" stroke-width="2" stroke-linecap="round" stroke-linejoin="round"
        class="mfeather mfeather-play" viewBox="0 0 24 24" id="play"
        xmlns="http://www.w3.org/2000/svg">
        <path d="M5 3l14 9-14 9V3z" />
    </symbol>
    <symbol viewBox="0 0 25 22" id="stairs" xmlns="http://www.w3.org/2000/svg">
        <path
            d="M23.288 4h-4.356c-.669 0-1.211.537-1.211 1.2v3.114h-3.145c-.67 0-1.212.536-1.212 1.199v3.114H10.22c-.67 0-1.211.537-1.211 1.2v3.264H5.712c-.322 0-.63.126-.857.35a1.195 1.195 0 00-.355.85V20.8c0 .663.543 1.2 1.212 1.2h17.576c.67 0 1.212-.537 1.212-1.2V5.2c0-.663-.542-1.2-1.212-1.2z" />
        <path
            d="M17.264.245A.848.848 0 0016.086.23C10.743 5.305 5.66 10.262.744 15.055a.803.803 0 00-.244.575v5.558c0 .448.373.812.833.812.46 0 .833-.364.833-.812v-5.222c4.836-4.716 9.836-9.588 15.082-14.572a.798.798 0 00.016-1.149z" />
    </symbol>
    <symbol viewBox="0 0 24 24" id="star" xmlns="http://www.w3.org/2000/svg">
        <path
            d="M23.605 8.709a1.168 1.168 0 00-1.013-.789l-6.651-.528-2.878-6.371a1.164 1.164 0 00-2.126-.002L8.06 7.392l-6.651.528A1.167 1.167 0 00.686 9.92L5.6 14.71l-1.738 7.527a1.167 1.167 0 001.785 1.234L12 19.236l6.352 4.235a1.168 1.168 0 001.77-1.29l-2.134-7.467 5.293-4.763c.346-.312.473-.8.324-1.242z" />
    </symbol>
    <symbol viewBox="0 0 0 0" id="svg--sprite--sprite" xmlns="http://www.w3.org/2000/svg" />
    <symbol viewBox="0 0 20 20" id="time" xmlns="http://www.w3.org/2000/svg">
        <path
            d="M9.99 0C4.47 0 0 4.48 0 10s4.47 10 9.99 10C15.52 20 20 15.52 20 10S15.52 0 9.99 0zM14 14a.994.994 0 01-1.41 0L9.3 10.71A1 1 0 019 10V6c0-.55.45-1 1-1s1 .45 1 1v3.59l3 3c.39.39.39 1.02 0 1.41z" />
    </symbol>
    <symbol viewBox="0 0 24 20" id="twitter" xmlns="http://www.w3.org/2000/svg">
        <path
            d="M24 2.376a9.669 9.669 0 01-2.832.78A5.011 5.011 0 0023.33.377c-.964.588-2.02 1-3.12 1.219A4.908 4.908 0 0018.574.414 4.8 4.8 0 0016.616 0C13.891 0 11.7 2.266 11.7 5.047c0 .39.046.781.12 1.157C7.74 5.985 4.1 3.985 1.68.924a5.109 5.109 0 00-.67 2.546c0 1.752.869 3.296 2.193 4.205a4.867 4.867 0 01-2.224-.642v.062c0 2.452 1.69 4.485 3.943 4.952-.423.113-.858.17-1.295.172-.32 0-.623-.033-.93-.077.624 2 2.438 3.453 4.598 3.5a9.701 9.701 0 01-6.106 2.157c-.412 0-.793-.015-1.188-.062A13.674 13.674 0 007.554 20c9.045 0 13.994-7.686 13.994-14.358 0-.219 0-.438-.014-.657A10.749 10.749 0 0024 2.375z" />
    </symbol>
    <symbol viewBox="0 0 18 18" id="villa" xmlns="http://www.w3.org/2000/svg">
        <path
            d="M4 18H1c-.55 0-1-.45-1-1V5.69c0-.42.25-.79.64-.94l11-4.23a1 1 0 011.36.94V7H5c-.55 0-1 .45-1 1v10zm10-9H7c-.55 0-1 .45-1 1v7c0 .55.45 1 1 1h4v-4c0-.55.45-1 1-1s1 .45 1 1v4h4c.55 0 1-.45 1-1V9c0-1.1-.9-2-2-2s-2 .9-2 2z" />
    </symbol>
    <symbol viewBox="0 0 14 14" id="wallet" xmlns="http://www.w3.org/2000/svg">
        <path
            d="M11.8 3.8h-10v-.4l8.8-.704V3.4h1.2V2.2c0-.88-.713-1.498-1.583-1.374L2.184 1.974C1.313 2.098.6 2.92.6 3.8v8a1.6 1.6 0 001.6 1.6h9.6a1.6 1.6 0 001.6-1.6V5.4a1.6 1.6 0 00-1.6-1.6zm-1.2 5.605a1.2 1.2 0 110-2.401 1.2 1.2 0 010 2.4z" />
    </symbol>
</svg>